Coordinates
version=1
nRows=30
nColumns=38
inDegrees=no

Units are S.I. units (second, meters, Newtons, ...)
If the header above contains a line with 'inDegrees', this indicates whether rotational values are in degrees (yes) or radians (no).

endheader
time	pelvis_tilt	pelvis_list	pelvis_rotation	pelvis_tx	pelvis_ty	pelvis_tz	hip_flexion_r	hip_adduction_r	hip_rotation_r	knee_angle_r	ankle_angle_r	subtalar_angle_r	mtp_angle_r	hip_flexion_l	hip_adduction_l	hip_rotation_l	knee_angle_l	ankle_angle_l	subtalar_angle_l	mtp_angle_l	lumbar_extension	lumbar_bending	lumbar_rotation	arm_flex_r	arm_add_r	arm_rot_r	elbow_flex_r	pro_sup_r	wrist_flex_r	wrist_dev_r	arm_flex_l	arm_add_l	arm_rot_l	elbow_flex_l	pro_sup_l	wrist_flex_l	wrist_dev_l
5.14	-0.390737	1.5097	-1.51566	0.817799	-0.434724	0.928223	0.154517	-0.0747357	-0.0648821	0.108108	-0.113305	0	0	-0.197285	-0.0671147	-0.475485	0.219091	0.213726	0	0	-0.154118	0.038846	-0.398101	-0.546585	-0.0880218	0.38334	0.644016	1.17085	0	0	-0.276131	-0.316345	0.253374	0.826743	1.26406	0	0
5.15	-0.367004	1.50593	-1.53222	0.815429	-0.438394	0.927938	0.148515	-0.0737979	-0.0660627	0.113974	-0.115855	0	0	-0.21461	-0.0578939	-0.422896	0.193006	0.201623	0	0	-0.156663	0.0419059	-0.38693	-0.529374	-0.0913142	0.381351	0.648415	1.17574	0	0	-0.269732	-0.313609	0.255837	0.820973	1.27137	0	0
5.16	-0.436524	1.50022	-1.45553	0.812269	-0.441653	0.92796	0.147143	-0.0611003	-0.0818953	0.133424	-0.10703	0	0	-0.221289	-0.0692898	-0.420294	0.199659	0.205872	0	0	-0.161298	0.0506243	-0.374712	-0.510738	-0.0952872	0.384742	0.652794	1.16431	0	0	-0.263637	-0.313209	0.262215	0.817163	1.25987	0	0
5.17	-0.468279	1.49572	-1.41596	0.80959	-0.44506	0.927906	0.146981	-0.0566814	-0.089066	0.154575	-0.0902501	0	0	-0.225372	-0.0778062	-0.417182	0.207794	0.209683	0	0	-0.165033	0.0580336	-0.362943	-0.491881	-0.0997333	0.380564	0.656664	1.17058	0	0	-0.257222	-0.309761	0.261494	0.810922	1.26987	0	0
5.18	-0.49888	1.49146	-1.37777	0.806922	-0.448489	0.927943	0.147693	-0.052709	-0.0953992	0.177056	-0.0736769	0	0	-0.228365	-0.0865775	-0.413609	0.217193	0.212941	0	0	-0.168456	0.0655517	-0.351649	-0.472478	-0.105597	0.375972	0.660521	1.17896	0	0	-0.251684	-0.305112	0.257707	0.804093	1.28273	0	0
5.19	-0.544944	1.5375	-1.32267	0.801813	-0.454259	0.92463	0.19998	-0.0588331	-0.100916	0.202904	-0.0535074	0	0	-0.177998	-0.0872689	-0.403726	0.231367	0.213554	0	0	-0.104987	0.0555918	-0.347563	-0.460706	-0.104047	0.356609	0.635555	1.23839	0	0	-0.259303	-0.287324	0.227785	0.767102	1.35053	0	0
5.2	-0.552847	1.48873	-1.31073	0.801126	-0.455187	0.927903	0.151956	-0.0456482	-0.105297	0.213766	-0.048296	0	0	-0.225472	-0.104289	-0.406608	0.241732	0.21813	0	0	-0.168393	0.0777792	-0.329744	-0.431952	-0.118594	0.360901	0.662921	1.21223	0	0	-0.243451	-0.292449	0.239522	0.785596	1.32288	0	0
5.21	-0.563681	1.48482	-1.29395	0.798133	-0.458338	0.928288	0.146533	-0.041913	-0.109113	0.22208	-0.0395599	0	0	-0.225887	-0.113589	-0.405789	0.256	0.219514	0	0	-0.172018	0.0830639	-0.318289	-0.411775	-0.125062	0.344732	0.664758	1.2586	0	0	-0.24	-0.288615	0.234469	0.780999	1.33538	0	0
5.22	-0.56394	1.48417	-1.287	0.795212	-0.461312	0.928515	0.142462	-0.0398668	-0.113567	0.22625	-0.0321448	0	0	-0.221816	-0.121351	-0.401903	0.271073	0.218991	0	0	-0.172281	0.0862763	-0.308121	-0.39016	-0.134553	0.343677	0.665665	1.26968	0	0	-0.236338	-0.286233	0.234375	0.775535	1.33609	0	0
5.23	-0.562398	1.48455	-1.2812	0.792343	-0.464158	0.92874	0.137493	-0.0380219	-0.119367	0.226474	-0.0253559	0	0	-0.214715	-0.129836	-0.398131	0.289623	0.218787	0	0	-0.171571	0.0889321	-0.298706	-0.368121	-0.144169	0.343566	0.665104	1.28853	0	0	-0.232511	-0.284145	0.234515	0.769819	1.33425	0	0
5.24	-0.559734	1.48545	-1.2751	0.789567	-0.467028	0.928986	0.130692	-0.036167	-0.126364	0.222804	-0.0195719	0	0	-0.205517	-0.139067	-0.392954	0.310581	0.218272	0	0	-0.170414	0.0910135	-0.291334	-0.344819	-0.153241	0.341515	0.661143	1.30957	0	0	-0.229658	-0.282807	0.234788	0.765339	1.32999	0	0
5.25	-0.554622	1.4861	-1.26951	0.786865	-0.469963	0.929293	0.121736	-0.0342213	-0.135004	0.216432	-0.0144846	0	0	-0.195152	-0.149116	-0.385575	0.3335	0.217379	0	0	-0.169522	0.0926207	-0.285844	-0.32056	-0.161573	0.338831	0.653712	1.33032	0	0	-0.227461	-0.282817	0.23635	0.762509	1.32333	0	0
5.26	-0.548707	1.48661	-1.26488	0.784212	-0.472677	0.929656	0.112886	-0.0319771	-0.143275	0.209978	-0.0101033	0	0	-0.183487	-0.159439	-0.377055	0.35837	0.215684	0	0	-0.168841	0.0942308	-0.27931	-0.296508	-0.170179	0.335444	0.646128	1.34925	0	0	-0.223985	-0.283736	0.241279	0.759752	1.31454	0	0
5.27	-1.27795	1.50573	-0.534963	0.780183	-0.477151	0.925205	0.153411	0.00750736	-0.135845	0.201574	-0.0140124	0	0	-0.105804	-0.227591	-0.43801	0.44379	0.246277	0	0	-0.108769	0.130355	-0.260573	-0.287367	-0.190377	0.330167	0.64214	1.36412	0	0	-0.224369	-0.269114	0.249055	0.737082	1.30529	0	0
5.28	-0.547497	1.48626	-1.24605	0.779073	-0.477597	0.930406	0.0944109	-0.0253802	-0.155529	0.195763	-0.0026533	0	0	-0.156441	-0.182349	-0.359298	0.41606	0.21082	0	0	-0.168604	0.0990462	-0.263181	-0.25064	-0.187539	0.320072	0.630396	1.42286	0	0	-0.21336	-0.291983	0.276559	0.758493	1.23567	0	0
5.29	-0.540358	1.48471	-1.24385	0.776695	-0.479934	0.930862	0.0838319	-0.022325	-0.161003	0.188407	-0.000228209	0	0	-0.143819	-0.192474	-0.348035	0.444485	0.205827	0	0	-0.170841	0.101575	-0.255836	-0.227217	-0.20157	0.32959	0.627307	1.41452	0	0	-0.208844	-0.292424	0.277572	0.755719	1.25148	0	0
5.3	-0.625173	1.48662	-1.14767	0.774855	-0.482127	0.930102	0.0809056	-0.0133006	-0.168521	0.182614	0.00240206	0	0	-0.105718	-0.2298	-0.379492	0.51999	0.215257	0	0	-0.166143	0.111842	-0.249214	-0.206608	-0.218804	0.337278	0.629219	1.41469	0	0	-0.203946	-0.293758	0.287	0.755956	1.24496	0	0
5.31	-0.652124	1.4868	-1.11269	0.772584	-0.484138	0.930103	0.075302	-0.00813273	-0.172689	0.177109	0.0043341	0	0	-0.0854754	-0.243419	-0.368391	0.555985	0.209073	0	0	-0.165479	0.116839	-0.239874	-0.184989	-0.235414	0.350914	0.629653	1.41265	0	0	-0.198404	-0.296016	0.297189	0.75553	1.23662	0	0
5.32	-0.664789	1.48736	-1.09215	0.770545	-0.485963	0.930081	0.0706392	-0.00475959	-0.177438	0.173013	0.00657134	0	0	-0.0647083	-0.253953	-0.354004	0.590448	0.199449	0	0	-0.165614	0.120557	-0.230852	-0.161851	-0.25344	0.373533	0.628424	1.39905	0	0	-0.192576	-0.29922	0.309123	0.756694	1.22164	0	0
5.33	-0.67393	1.48823	-1.07523	0.768555	-0.487675	0.929997	0.0672161	-0.00213242	-0.182831	0.170822	0.00913348	0	0	-0.0437406	-0.262983	-0.33854	0.623468	0.187799	0	0	-0.166092	0.123643	-0.221706	-0.137744	-0.269714	0.39372	0.623263	1.37588	0	0	-0.186798	-0.302196	0.317269	0.7583	1.21428	0	0
5.34	-0.6886	1.48927	-1.0534	0.766604	-0.489211	0.929836	0.0653019	0.000599772	-0.188008	0.170144	0.011629	0	0	-0.0221862	-0.271587	-0.323145	0.655935	0.17462	0	0	-0.166663	0.126907	-0.21247	-0.111628	-0.287127	0.425267	0.616852	1.31505	0	0	-0.181354	-0.302794	0.314587	0.757947	1.23928	0	0
5.35	-0.704506	1.48977	-1.03035	0.764767	-0.490631	0.929677	0.0630142	0.00385028	-0.192034	0.168847	0.0137971	0	0	-0.000722858	-0.279663	-0.307752	0.687614	0.160714	0	0	-0.168066	0.130227	-0.202422	-0.0861333	-0.298643	0.431535	0.60305	1.32714	0	0	-0.174739	-0.30629	0.322992	0.760891	1.22785	0	0
5.36	-0.714492	1.48951	-1.01138	0.763068	-0.492243	0.929567	0.0588517	0.00715847	-0.198137	0.166445	0.0155361	0	0	0.0201817	-0.287105	-0.291945	0.718004	0.146225	0	0	-0.169515	0.133506	-0.194843	-0.0603681	-0.309789	0.441844	0.588221	1.31421	0	0	-0.169206	-0.305175	0.312008	0.758337	1.28172	0	0
5.37	-0.693394	1.48768	-1.02249	0.761249	-0.493726	0.929677	0.0519407	0.00936006	-0.205145	0.164358	0.0174718	0	0	0.0379697	-0.292531	-0.276263	0.7459	0.130651	0	0	-0.176619	0.141513	-0.172476	-0.0523704	-0.320486	0.412266	0.58943	1.30529	0	0	-0.14658	-0.309512	0.340564	0.749591	1.27073	0	0
5.38	-0.685259	1.48643	-1.02171	0.759645	-0.495271	0.929691	0.0467642	0.0117816	-0.210414	0.16319	0.0194722	0	0	0.0556964	-0.297612	-0.263314	0.77195	0.118194	0	0	-0.180083	0.143272	-0.164078	-0.0282516	-0.328555	0.41156	0.570549	1.31097	0	0	-0.139522	-0.311466	0.341554	0.749411	1.28795	0	0
5.39	-0.676483	1.48553	-1.02032	0.758213	-0.496728	0.929677	0.0419991	0.0138312	-0.215881	0.162172	0.0208664	0	0	0.0738511	-0.301828	-0.250828	0.796115	0.109195	0	0	-0.183145	0.144577	-0.156852	-0.00486167	-0.33586	0.411473	0.55074	1.32307	0	0	-0.131896	-0.313584	0.342664	0.748492	1.3063	0	0
5.4	-0.665412	1.48515	-1.01903	0.756951	-0.498178	0.929618	0.0369408	0.015782	-0.223499	0.159971	0.0214813	0	0	0.092585	-0.304841	-0.237921	0.817894	0.102849	0	0	-0.185296	0.145129	-0.151497	0.0162065	-0.341987	0.408227	0.533887	1.33076	0	0	-0.124051	-0.316149	0.344138	0.747247	1.32533	0	0
5.41	-0.639525	1.48518	-1.03339	0.755761	-0.499604	0.929709	0.0318987	0.016348	-0.230533	0.158046	0.0216271	0	0	0.108966	-0.304868	-0.226453	0.835171	0.0979062	0	0	-0.188083	0.143985	-0.145655	0.0361893	-0.344404	0.385263	0.514534	1.38774	0	0	-0.116451	-0.315231	0.332032	0.7422	1.38772	0	0
5.42	-0.596775	1.48455	-1.06553	0.754639	-0.500944	0.93	0.0262041	0.015553	-0.2374	0.157057	0.0218693	0	0	0.121861	-0.302729	-0.217254	0.847934	0.0943248	0	0	-0.192039	0.141446	-0.139724	0.0558557	-0.350465	0.382232	0.501191	1.40104	0	0	-0.108583	-0.317272	0.332577	0.740107	1.40131	0	0
5.43	-0.549753	1.48353	-1.10172	0.753613	-0.502357	0.93041	0.0195064	0.0145309	-0.244157	0.155161	0.0223305	0	0	0.132654	-0.299537	-0.209675	0.856692	0.0920237	0	0	-0.195941	0.138478	-0.134412	0.0731914	-0.35677	0.37966	0.491921	1.41064	0	0	-0.10104	-0.319074	0.333236	0.73761	1.41054	0	0
